<svg xmlns="http://www.w3.org/2000/svg" viewBox="0 0 64 64">
  <path d="M18 31c-5 0-9-4-9-9s4-9 9-9c1 0 2 .1 2 .2A12 12 0 0 1 32 6a12 12 0 0 1 12 7.2c.7-.1 1.3-.2 2-.2 5 0 9 4 9 9s-4 9-9 9H18Z" fill="#f8e7ea" stroke="#6f4a2f" stroke-width="3" stroke-linejoin="round"/>
  <path d="M22 31h20l-3 21a4 4 0 0 1-4 3h-6a4 4 0 0 1-4-3l-3-21Z" fill="#2f61a5" stroke="#6f4a2f" stroke-width="3" stroke-linejoin="round"/>
  <path d="M26 31v20M32 31v21M38 31v20" stroke="#f8f2ea" stroke-width="3" stroke-linecap="round"/>
  <circle cx="32" cy="14" r="4" fill="#c9415c"/>
</svg>
