<svg xmlns="http://www.w3.org/2000/svg" viewBox="0 0 64 64">
  <path d="M17 18 10 8l1 17 6 5m30-12 7-10-1 17-6 5" fill="#2f61a5" stroke="#2f61a5" stroke-width="2" stroke-linejoin="round"/>
  <path d="M18 23c4-10 24-10 28 0l2 5c2 4 2 9 0 13-3 8-10 13-18 13s-15-5-18-13c-2-4-2-9 0-13l2-5Z" fill="#f8f2ea" stroke="#6f4a2f" stroke-width="3" stroke-linejoin="round"/>
  <path d="M23 28c2-4 7-7 9-7s7 3 9 7" fill="none" stroke="#2f61a5" stroke-width="3" stroke-linecap="round"/>
  <path d="M20 34c4 3 9 5 12 5s8-2 12-5" fill="#d8e4f6" stroke="#2f61a5" stroke-width="3" stroke-linejoin="round"/>
  <path d="M29 43c2 2 4 2 6 0" fill="none" stroke="#6f4a2f" stroke-width="3" stroke-linecap="round"/>
  <circle cx="24" cy="31" r="2" fill="#3a2d22"/>
  <circle cx="40" cy="31" r="2" fill="#3a2d22"/>
  <path d="M32 35l-3 3h6l-3-3Z" fill="#6f4a2f"/>
</svg>
