<svg xmlns="http://www.w3.org/2000/svg" width="420" height="420" viewBox="0 0 420 420">
  <rect width="420" height="420" fill="#fdf8f2"/>
  <g fill="#2f61a5" fill-opacity=".08">
    <g transform="translate(60 65)">
      <ellipse cx="0" cy="0" rx="10" ry="12"/>
      <ellipse cx="18" cy="-9" rx="9" ry="11"/>
      <ellipse cx="36" cy="0" rx="10" ry="12"/>
      <ellipse cx="-11" cy="18" rx="9" ry="11"/>
      <ellipse cx="47" cy="18" rx="9" ry="11"/>
      <path d="M18 10c-14 0-24 12-24 25 0 9 5 14 11 14 4 0 7-3 13-3s9 3 13 3c6 0 11-5 11-14 0-13-10-25-24-25Z"/>
    </g>
    <g transform="translate(305 90) scale(.8)">
      <ellipse cx="0" cy="0" rx="10" ry="12"/>
      <ellipse cx="18" cy="-9" rx="9" ry="11"/>
      <ellipse cx="36" cy="0" rx="10" ry="12"/>
      <ellipse cx="-11" cy="18" rx="9" ry="11"/>
      <ellipse cx="47" cy="18" rx="9" ry="11"/>
      <path d="M18 10c-14 0-24 12-24 25 0 9 5 14 11 14 4 0 7-3 13-3s9 3 13 3c6 0 11-5 11-14 0-13-10-25-24-25Z"/>
    </g>
    <g transform="translate(120 285) scale(.9)">
      <ellipse cx="0" cy="0" rx="10" ry="12"/>
      <ellipse cx="18" cy="-9" rx="9" ry="11"/>
      <ellipse cx="36" cy="0" rx="10" ry="12"/>
      <ellipse cx="-11" cy="18" rx="9" ry="11"/>
      <ellipse cx="47" cy="18" rx="9" ry="11"/>
      <path d="M18 10c-14 0-24 12-24 25 0 9 5 14 11 14 4 0 7-3 13-3s9 3 13 3c6 0 11-5 11-14 0-13-10-25-24-25Z"/>
    </g>
    <g transform="translate(328 320) scale(.75)">
      <ellipse cx="0" cy="0" rx="10" ry="12"/>
      <ellipse cx="18" cy="-9" rx="9" ry="11"/>
      <ellipse cx="36" cy="0" rx="10" ry="12"/>
      <ellipse cx="-11" cy="18" rx="9" ry="11"/>
      <ellipse cx="47" cy="18" rx="9" ry="11"/>
      <path d="M18 10c-14 0-24 12-24 25 0 9 5 14 11 14 4 0 7-3 13-3s9 3 13 3c6 0 11-5 11-14 0-13-10-25-24-25Z"/>
    </g>
  </g>
  <g fill="none" stroke="#c6905d" stroke-opacity=".18" stroke-width="4">
    <circle cx="210" cy="84" r="44"/>
    <circle cx="80" cy="200" r="36"/>
    <circle cx="340" cy="210" r="50"/>
    <circle cx="220" cy="340" r="38"/>
  </g>
  <g transform="translate(210 218)" opacity=".12">
    <path d="M-60-42-78-69l2 46 16 12m120-31 18-27-2 46-16 12" fill="#2f61a5"/>
    <path d="M-56-26c9-24 78-24 87 0l5 11c5 9 5 20 1 30-8 19-26 31-49 31s-41-12-49-31c-4-10-4-21 1-30l4-11Z" fill="#2f61a5"/>
    <path d="M-38-11c6-9 16-16 26-16s20 7 26 16" stroke="#fdf8f2" stroke-width="7" stroke-linecap="round"/>
    <path d="M-48 5c11 8 24 12 36 12s25-4 36-12" fill="#fdf8f2"/>
    <circle cx="-24" cy="-6" r="4" fill="#6f4a2f"/>
    <circle cx="24" cy="-6" r="4" fill="#6f4a2f"/>
  </g>
</svg>
