<svg width="240" height="240" viewBox="0 0 240 240" fill="none" xmlns="http://www.w3.org/2000/svg">
  <rect width="240" height="240" fill="none"/>

  <g opacity="0.14">
    <circle cx="28" cy="28" r="2.2" fill="#F5E1B2"/>
    <circle cx="92" cy="52" r="1.5" fill="#FFFFFF" fill-opacity="0.35"/>
    <circle cx="156" cy="28" r="2.2" fill="#F5E1B2"/>
    <circle cx="220" cy="52" r="1.5" fill="#FFFFFF" fill-opacity="0.35"/>

    <circle cx="52" cy="92" r="1.5" fill="#FFFFFF" fill-opacity="0.35"/>
    <circle cx="120" cy="120" r="2.2" fill="#F5E1B2"/>
    <circle cx="188" cy="92" r="1.5" fill="#FFFFFF" fill-opacity="0.35"/>

    <circle cx="28" cy="156" r="2.2" fill="#F5E1B2"/>
    <circle cx="92" cy="188" r="1.5" fill="#FFFFFF" fill-opacity="0.35"/>
    <circle cx="156" cy="156" r="2.2" fill="#F5E1B2"/>
    <circle cx="220" cy="188" r="1.5" fill="#FFFFFF" fill-opacity="0.35"/>
  </g>

  <g opacity="0.18">
    <path d="M60 20L80 40" stroke="#F5E1B2" stroke-opacity="0.18"/>
    <path d="M140 100L160 120" stroke="#F5E1B2" stroke-opacity="0.18"/>
    <path d="M20 140L40 160" stroke="#F5E1B2" stroke-opacity="0.18"/>
    <path d="M180 180L200 200" stroke="#F5E1B2" stroke-opacity="0.18"/>
  </g>

  <g opacity="0.22">
    <g transform="translate(30 110)">
      <circle cx="10" cy="0" r="4" fill="#F5E1B2"/>
      <circle cx="0" cy="12" r="4" fill="#F5E1B2"/>
      <circle cx="20" cy="12" r="4" fill="#F5E1B2"/>
      <rect x="5" y="16" width="10" height="12" rx="5" fill="#F5E1B2"/>
    </g>

    <g transform="translate(150 30) scale(0.9)">
      <circle cx="10" cy="0" r="4" fill="#F5E1B2"/>
      <circle cx="0" cy="12" r="4" fill="#F5E1B2"/>
      <circle cx="20" cy="12" r="4" fill="#F5E1B2"/>
      <rect x="5" y="16" width="10" height="12" rx="5" fill="#F5E1B2"/>
    </g>

    <g transform="translate(170 150) scale(1.1)">
      <circle cx="10" cy="0" r="4" fill="#F5E1B2"/>
      <circle cx="0" cy="12" r="4" fill="#F5E1B2"/>
      <circle cx="20" cy="12" r="4" fill="#F5E1B2"/>
      <rect x="5" y="16" width="10" height="12" rx="5" fill="#F5E1B2"/>
    </g>
  </g>
</svg>
